<svg width="31" height="30" viewBox="0 0 31 30" fill="none" xmlns="http://www.w3.org/2000/svg">
<path d="M15.3334 0C11.2596 0 10.7484 0.017813 9.14837 0.0906262C7.55148 0.163752 6.46147 0.416567 5.50771 0.787508C4.52114 1.17064 3.68425 1.68314 2.85049 2.51721C2.01611 3.35097 1.50361 4.18786 1.11923 5.17412C0.747348 6.12819 0.49422 7.21851 0.422345 8.81478C0.350781 10.4148 0.332031 10.9264 0.332031 15.0002C0.332031 19.0739 0.350157 19.5836 0.422657 21.1837C0.496096 22.7806 0.748911 23.8706 1.11954 24.8243C1.50298 25.8109 2.01549 26.6478 2.84956 27.4815C3.683 28.3159 4.51989 28.8297 5.50584 29.2128C6.46022 29.5837 7.55054 29.8366 9.14712 29.9097C10.7471 29.9825 11.2581 30.0003 15.3316 30.0003C19.4057 30.0003 19.9154 29.9825 21.5154 29.9097C23.1123 29.8366 24.2035 29.5837 25.1579 29.2128C26.1442 28.8297 26.9798 28.3159 27.8133 27.4815C28.6476 26.6478 29.1601 25.8109 29.5445 24.8246C29.9133 23.8706 30.1664 22.7802 30.2414 21.184C30.3133 19.584 30.332 19.0739 30.332 15.0002C30.332 10.9264 30.3133 10.4151 30.2414 8.81509C30.1664 7.2182 29.9133 6.12819 29.5445 5.17443C29.1601 4.18786 28.6476 3.35097 27.8133 2.51721C26.9789 1.68283 26.1445 1.17032 25.157 0.787508C24.2007 0.416567 23.1101 0.163752 21.5132 0.0906262C19.9132 0.017813 19.4038 0 15.3287 0H15.3334ZM13.9878 2.70315C14.3872 2.70253 14.8328 2.70315 15.3334 2.70315C19.3385 2.70315 19.8132 2.71753 21.3948 2.7894C22.8573 2.85628 23.651 3.10066 24.1798 3.30597C24.8798 3.57785 25.3789 3.90285 25.9035 4.42786C26.4286 4.95286 26.7536 5.45287 27.0261 6.15288C27.2314 6.68101 27.4761 7.47476 27.5426 8.93728C27.6145 10.5185 27.6301 10.9936 27.6301 14.9967C27.6301 18.9999 27.6145 19.4749 27.5426 21.0562C27.4757 22.5187 27.2314 23.3124 27.0261 23.8406C26.7542 24.5406 26.4286 25.039 25.9035 25.5637C25.3785 26.0887 24.8801 26.4137 24.1798 26.6856C23.6516 26.8918 22.8573 27.1356 21.3948 27.2025C19.8135 27.2743 19.3385 27.29 15.3334 27.29C11.3281 27.29 10.8534 27.2743 9.27212 27.2025C7.80961 27.135 7.01585 26.8906 6.48678 26.6853C5.78678 26.4134 5.28677 26.0884 4.76176 25.5634C4.23676 25.0384 3.91176 24.5396 3.63925 23.8393C3.43394 23.3112 3.18925 22.5174 3.12269 21.0549C3.05081 19.4736 3.03643 18.9986 3.03643 14.993C3.03643 10.9873 3.05081 10.5148 3.12269 8.93353C3.18956 7.47102 3.43394 6.67726 3.63925 6.1485C3.91113 5.44849 4.23676 4.94849 4.76176 4.42348C5.28677 3.89848 5.78678 3.57347 6.48678 3.30097C7.01554 3.09472 7.80961 2.85097 9.27212 2.78378C10.6559 2.72128 11.1921 2.70253 13.9878 2.6994V2.70315ZM23.3404 5.1938C22.3466 5.1938 21.5404 5.99912 21.5404 6.9932C21.5404 7.98696 22.3466 8.79322 23.3404 8.79322C24.3342 8.79322 25.1404 7.98696 25.1404 6.9932C25.1404 5.99944 24.3342 5.19318 23.3404 5.19318V5.1938ZM15.3334 7.29695C11.0793 7.29695 7.63023 10.746 7.63023 15.0002C7.63023 19.2543 11.0793 22.7018 15.3334 22.7018C19.5875 22.7018 23.0354 19.2543 23.0354 15.0002C23.0354 10.746 19.5872 7.29695 15.3331 7.29695H15.3334ZM15.3334 10.0001C18.0947 10.0001 20.3335 12.2386 20.3335 15.0002C20.3335 17.7614 18.0947 20.0002 15.3334 20.0002C12.5718 20.0002 10.3334 17.7614 10.3334 15.0002C10.3334 12.2386 12.5718 10.0001 15.3334 10.0001Z" fill="#F5F5F5"/>
</svg>
