<svg width="30" height="30" viewBox="0 0 30 30" fill="none" xmlns="http://www.w3.org/2000/svg">
<path d="M0 2.14901C0 0.962462 0.958877 0 2.14177 0H27.0249C28.2077 0 29.1667 0.962466 29.1667 2.14901V27.851C29.1667 29.0379 28.2077 30 27.0249 30L2.14177 30C0.958877 30 0 29.0379 0 27.851V2.14901ZM9.01137 25.1131V11.5664H4.63378V25.1131H9.01137ZM6.82255 9.71686C8.34911 9.71686 9.29926 8.67662 9.29926 7.37663C9.27081 6.04738 8.34911 5.03601 6.85151 5.03601C5.35407 5.03601 4.375 6.04738 4.375 7.37663C4.375 8.67662 5.32495 9.71686 6.79402 9.71686H6.82255ZM15.7708 25.1131V17.5481C15.7708 17.1432 15.7992 16.7387 15.9148 16.4493C16.2313 15.6404 16.9516 14.8026 18.1609 14.8026C19.7449 14.8026 20.3786 16.0448 20.3786 17.8659V25.1131H24.7558V17.3456C24.7558 13.1847 22.5961 11.2485 19.716 11.2485C17.3939 11.2485 16.3527 12.5613 15.7709 13.4844V13.531H15.7417C15.7513 13.5156 15.761 13.5 15.7709 13.4844V11.5664H11.3933C11.4508 12.8376 11.3933 25.1131 11.3933 25.1131H15.7708Z" fill="#F5F5F5"/>
</svg>
