<svg width="170" height="50" viewBox="0 0 170 50" fill="none" xmlns="http://www.w3.org/2000/svg">
<path d="M30.6748 21.2177L30.1699 21.5753C25.9114 18.7821 20.281 17.1341 14.4364 17.1341C12.6293 17.1341 10.7542 17.4226 9.5999 17.6368C9.384 18.2086 9.163 19.1397 9.163 20.1433C9.163 22.2922 10.3938 23.6517 14.6523 24.4411L19.9937 25.443C29.1618 27.091 32.9868 30.8136 32.9868 36.616C32.9868 40.0536 31.756 42.6326 29.8809 44.5656C26.7036 47.6473 21.5067 49.3644 14.8682 49.3644C9.3109 49.3644 4.5424 48.2916 2.6673 47.7907L0 37.6905L0.5763 37.4037C4.9793 40.9138 11.6909 43.1336 18.1849 43.1336C20.7128 43.1336 22.8769 42.776 23.8901 42.4167C24.106 41.9157 24.3236 40.9138 24.3236 40.0536C24.3236 37.9047 23.1693 36.616 18.3294 35.6124L12.7007 34.4671C4.9079 32.9642 0.5049 29.3124 0.5049 23.1524C0.5049 19.9307 1.6592 17.35 3.6788 15.3462C6.2798 12.7655 10.8273 10.905 17.5372 10.905C21.5798 10.905 25.4065 11.6202 27.7899 12.2645L30.6748 21.2177ZM52.224 17.6165L62.8303 13.5717L63.3862 11.9794H52.1271V0.792969H50.5359L36.4599 16.5623V17.7093H41.0074V37.4746C41.0074 45.4259 45.2659 49.1485 54.0005 49.1485C57.1064 49.1485 59.9182 48.6475 61.3649 48.2174L62.8065 40.5545L62.373 40.3403C60.7869 41.6998 58.2573 43.061 55.7345 43.061C53.4225 43.061 52.1237 42.0574 52.1237 39.2642V17.7076L52.2206 17.6148L52.224 17.6165ZM90.6712 43.9938C86.4127 47.5764 81.4317 49.3644 76.9556 49.3644C73.3448 49.3644 70.3885 48.1483 68.5814 46.2861C66.7063 44.4239 65.6965 41.6307 65.6965 38.6232C65.6965 34.7555 67.3557 32.0331 69.4467 30.2435C72.6954 27.5936 78.1813 26.089 85.8347 26.089C87.2049 26.089 88.6516 26.089 90.0218 26.1599V24.2994C90.0218 21.7912 89.4455 19.8582 88.2147 18.7112C87.1335 17.6385 85.4743 17.1341 83.0909 17.1341C78.8324 17.1341 73.5624 18.7821 68.6545 21.7895L68.0782 21.3594L71.2555 12.1211C73.9959 11.6202 79.1928 10.905 83.9613 10.905C90.0949 10.905 94.7869 12.1211 97.5273 14.9144C100.2 17.5659 100.921 21.6462 100.921 26.0874V41.7015L102.872 46.4278V46.7854L91.1047 48.9343H90.6712V43.9921V43.9938ZM90.0218 41.0572V31.5322C88.1433 31.0295 85.7633 30.8153 83.4513 30.8153C80.7823 30.8153 78.6148 31.1746 77.2446 31.6755C77.0287 32.9642 76.8111 34.683 76.8111 36.4743C76.8111 39.8394 77.605 41.3439 78.4703 42.1316C79.339 42.9919 80.6378 43.422 82.1525 43.422C84.7535 43.422 87.5653 42.4892 90.0218 41.0589V41.0572ZM121.434 21.3611V48.2899H110.32V19.8582L108.373 14.3426V13.985L120.425 11.4076H120.785V17.9252C123.673 12.2662 127.86 10.9775 130.674 10.9775C131.543 10.9775 132.337 11.1209 132.841 11.2643L133.491 20.145L133.275 20.2883C132.121 20.0016 130.531 19.7874 128.799 19.7874C126.49 19.7874 123.891 20.145 121.434 21.3611ZM167.688 21.2177L167.183 21.5753C162.925 18.7821 157.294 17.1341 151.45 17.1341C149.643 17.1341 147.767 17.4226 146.613 17.6368C146.397 18.2086 146.176 19.1397 146.176 20.1433C146.176 22.2922 147.407 23.6517 151.666 24.4411L157.007 25.443C166.175 27.091 170 30.8136 170 36.616C170 40.0536 168.769 42.6326 166.894 44.5656C163.717 47.6473 158.52 49.3644 151.881 49.3644C146.324 49.3644 141.556 48.2916 139.681 47.7907L137.008 37.6905L137.589 37.4037C141.992 40.9138 148.704 43.1336 155.198 43.1336C157.726 43.1336 159.89 42.776 160.903 42.4167C161.119 41.9157 161.337 40.9138 161.337 40.0536C161.337 37.9047 160.183 36.616 155.343 35.6124L149.714 34.4671C141.921 32.9625 137.518 29.3107 137.518 23.1507C137.518 19.9291 138.672 17.3483 140.692 15.3445C143.293 12.7638 147.84 10.9033 154.55 10.9033C158.593 10.9033 162.42 11.6185 164.803 12.2628L167.688 21.216V21.2177Z" fill="#2D233D"/>
</svg>
