<svg width="147" height="42" viewBox="0 0 147 42" fill="none" xmlns="http://www.w3.org/2000/svg">
<path d="M26.5247 17.6614L26.0881 17.9706C22.4057 15.5553 17.5371 14.1303 12.4832 14.1303C10.9206 14.1303 9.29922 14.3797 8.30109 14.5649C8.1144 15.0594 7.9233 15.8645 7.9233 16.7323C7.9233 18.5905 8.98758 19.7661 12.6699 20.4487L17.2887 21.315C25.2164 22.74 28.5239 25.959 28.5239 30.9764C28.5239 33.9489 27.4596 36.179 25.8382 37.8505C23.0908 40.5152 18.597 42 12.8566 42C8.05119 42 3.92784 41.0724 2.30643 40.6392L0 31.9055L0.49833 31.6575C4.30563 34.6927 10.1092 36.6122 15.7246 36.6122C17.9105 36.6122 19.7818 36.303 20.6579 35.9923C20.8446 35.5591 21.0328 34.6927 21.0328 33.9489C21.0328 32.0907 20.0346 30.9764 15.8495 30.1086L10.9824 29.1182C4.24389 27.8187 0.43659 24.6609 0.43659 19.3344C0.43659 16.5485 1.43472 14.317 3.18108 12.5842C5.43018 10.3527 9.36243 8.74392 15.1645 8.74392C18.6602 8.74392 21.9692 9.36234 24.0301 9.9195L26.5247 17.6614ZM45.1584 14.5474L54.3297 11.0499L54.8104 9.67301H45.0746V0H43.6987L31.5271 13.6359V14.6277H35.4593V31.7188C35.4593 38.5943 39.1417 41.8133 46.6945 41.8133C49.3802 41.8133 51.8116 41.3801 53.0626 41.0082L54.3092 34.3821L53.9343 34.1968C52.5628 35.3724 50.3754 36.5494 48.194 36.5494C46.1948 36.5494 45.0717 35.6816 45.0717 33.2663V14.6262L45.1555 14.546L45.1584 14.5474ZM78.4039 37.356C74.7216 40.454 70.4145 42 66.544 42C63.4217 42 60.8654 40.9484 59.3027 39.3382C57.6813 37.7279 56.8082 35.3126 56.8082 32.712C56.8082 29.3676 58.2429 27.0135 60.051 25.466C62.8601 23.1747 67.6038 21.8737 74.2218 21.8737C75.4066 21.8737 76.6576 21.8737 77.8424 21.9349V20.3262C77.8424 18.1573 77.344 16.4858 76.2798 15.494C75.3448 14.5664 73.9101 14.1303 71.8492 14.1303C68.1668 14.1303 63.6098 15.5553 59.366 18.1559L58.8676 17.7839L61.615 9.79553C63.9847 9.36234 68.4785 8.74392 72.6018 8.74392C77.9056 8.74392 81.9628 9.79553 84.3324 12.2109C86.6433 14.5037 87.2666 18.0319 87.2666 21.8722V35.3739L88.9541 39.4607V39.7699L78.7788 41.6281H78.4039V37.3546V37.356ZM77.8424 34.8167V26.5804C76.218 26.1457 74.16 25.9605 72.1608 25.9605C69.8529 25.9605 67.9787 26.2711 66.7939 26.7043C66.6072 27.8187 66.419 29.3049 66.419 30.8539C66.419 33.7636 67.1055 35.0647 67.8537 35.7458C68.6049 36.4897 69.728 36.8616 71.0378 36.8616C73.2868 36.8616 75.7182 36.055 77.8424 34.8182V34.8167ZM105.005 17.7854V41.0709H95.3942V16.4858L93.711 11.7164V11.4072L104.132 9.17857H104.443V14.8143C106.941 9.92096 110.562 8.80664 112.994 8.80664C113.746 8.80664 114.432 8.93062 114.869 9.05459L115.43 16.7338L115.244 16.8578C114.245 16.6098 112.871 16.4246 111.373 16.4246C109.377 16.4246 107.129 16.7338 105.005 17.7854ZM145.001 17.6614L144.564 17.9706C140.882 15.5553 136.013 14.1303 130.959 14.1303C129.397 14.1303 127.775 14.3797 126.777 14.5649C126.591 15.0594 126.399 15.8645 126.399 16.7323C126.399 18.5905 127.464 19.7661 131.146 20.4487L135.765 21.315C143.693 22.74 147 25.959 147 30.9764C147 33.9489 145.936 36.179 144.314 37.8505C141.567 40.5152 137.073 42 131.333 42C126.527 42 122.404 41.0724 120.783 40.6392L118.472 31.9055L118.974 31.6575C122.782 34.6927 128.585 36.6122 134.201 36.6122C136.387 36.6122 138.258 36.303 139.134 35.9923C139.321 35.5591 139.509 34.6927 139.509 33.9489C139.509 32.0907 138.511 30.9764 134.326 30.1086L129.458 29.1182C122.72 27.8172 118.913 24.6595 118.913 19.3329C118.913 16.5471 119.911 14.3155 121.657 12.5828C123.906 10.3512 127.839 8.74246 133.641 8.74246C137.136 8.74246 140.445 9.36088 142.506 9.91804L145.001 17.66V17.6614Z" fill="#F5F5F5"/>
</svg>
