<svg width="30" height="30" viewBox="0 0 30 30" fill="none" xmlns="http://www.w3.org/2000/svg">
<path d="M17.0743 1.91107e-05L20.6847 0C20.9454 1.34065 21.6691 3.03198 22.935 4.7099C24.1754 6.354 25.819 7.50002 28.0118 7.50002V11.25C24.8155 11.25 22.4137 9.72459 20.7201 7.82137V20.625C20.7201 25.8027 16.6394 30 11.6056 30C6.5717 30 2.49097 25.8027 2.49097 20.625C2.49097 15.4473 6.57171 11.25 11.6056 11.25V15C8.58524 15 6.1368 17.5184 6.1368 20.625C6.1368 23.7316 8.58524 26.25 11.6056 26.25C14.6259 26.25 17.0743 23.7316 17.0743 20.625V1.91107e-05Z" fill="#F5F5F5"/>
</svg>
